<svg width="1032" height="47" viewBox="0 0 1032 47" fill="none" xmlns="http://www.w3.org/2000/svg">
    <path d="M0 8c0-4 4-8 8-8h1016c4 0 8 4 8 8v39H0V8Z" fill="#fff"/>
    <path opacity=".2" stroke="#666" d="M0 46h1032"/>
    <path d="m1005 32 1-1 1-1v-6l-1-2h-2v-1l-1-2h-9l-1 2v6l1 1 1 1h1v1l1 1 1 1h7Zm-9-4h-1l-1-1v-6l1-1h7l1 1v1h-6l-1 2v4Zm9 3h-7l-1-1v-6l1-1h8v8h-1ZM968 31v-5h5v-1h-5v-5h-1v5h-5l1 1h4v4l1 1ZM937 27l1-1v-7l1 1v1l1-1-3-2-2 2h-1 1v1-1l1-1h1v8Zm4 5 1-1 1-1v-6l-1-2h-3v1h2l1 1v6l-1 1h-8l-1-1v-6l1-1h2v-1h-3l-1 2v6l1 1 1 1h8Z"
          fill="#5E5E5E"/>
    <path d="M721 14H320c-4 0-6 3-6 6v11c0 3 2 6 6 6h401c3 0 6-3 6-6V20c0-3-3-6-6-6Z" fill="#E6E6E6" fill-opacity=".6"/>
    <path d="M174 31h1l5-5v-1l-5-5h-1a1 1 0 0 0 0 1l5 4-5 5a1 1 0 0 0 0 1ZM155 31a1 1 0 0 0 1-1l-5-5 5-4a1 1 0 0 0 0-1h-1l-5 5a1 1 0 0 0 0 1l5 5ZM120 31h2V20l-2-1h-11l-1 1-1 1v8l1 2h12Zm-8-1h-3l-1-1v-8h1v-1h3v10Zm8 0h-7V20h7l1 1v9h-1Zm-9-7v-1h-2v1h2Zm0 1h-2 2Zm0 2v-1h-2v1h2ZM68 31a6 6 0 1 0 0-11 6 6 0 0 0 0 11ZM49 31a6 6 0 1 0 0-11 6 6 0 0 0 0 11ZM31 31a6 6 0 1 0 0-11 6 6 0 0 0 0 11Z"
          fill="#5E5E5E"/>
</svg>