<?xml version="1.0" standalone="no"?>
<!DOCTYPE svg PUBLIC "-//W3C//DTD SVG 20010904//EN"
 "http://www.w3.org/TR/2001/REC-SVG-20010904/DTD/svg10.dtd">
<svg version="1.0" xmlns="http://www.w3.org/2000/svg"
 width="2848.000000pt" height="2848.000000pt" viewBox="0 0 2848.000000 2848.000000"
 preserveAspectRatio="xMidYMid meet">
<metadata>
Created by potrace 1.14, written by Peter Selinger 2001-2017
</metadata>
<g transform="translate(0.000000,2848.000000) scale(0.100000,-0.100000)"
fill="#000000" stroke="none">
<path d="M36 17933 c1 -27 2 -51 3 -54 0 -4 34 -7 74 -8 81 -2 160 -8 197 -16
14 -2 41 -7 60 -10 123 -20 255 -78 346 -151 120 -98 176 -184 321 -493 20
-42 36 -82 36 -88 0 -7 3 -13 6 -13 3 0 12 -15 20 -32 8 -18 45 -96 81 -173
37 -77 78 -162 90 -190 12 -27 50 -106 82 -175 92 -190 131 -274 133 -280 1
-3 20 -45 44 -94 23 -49 55 -116 71 -150 15 -35 47 -100 69 -145 23 -46 41
-89 41 -95 0 -7 6 -18 13 -24 6 -7 12 -16 13 -20 0 -4 20 -47 43 -97 68 -144
79 -170 78 -176 -1 -4 5 -15 14 -25 13 -16 27 -42 34 -64 1 -3 21 -45 44 -95
24 -49 59 -124 78 -165 20 -41 60 -126 89 -188 30 -62 54 -117 54 -123 0 -5 5
-9 10 -9 6 0 10 -5 10 -12 0 -6 14 -41 31 -77 17 -36 43 -91 57 -121 13 -30
58 -124 98 -209 41 -84 74 -155 74 -156 0 -2 31 -68 69 -147 37 -78 71 -153
75 -165 4 -13 12 -23 17 -23 5 0 9 -6 9 -14 0 -8 30 -77 66 -153 37 -76 79
-165 94 -198 15 -33 51 -109 80 -170 63 -133 124 -262 186 -392 25 -54 62
-132 81 -173 71 -150 93 -198 93 -206 0 -4 6 -15 13 -23 7 -9 26 -45 42 -81
15 -36 49 -109 76 -163 26 -54 48 -101 49 -105 1 -4 27 -59 57 -122 74 -154
116 -244 118 -250 1 -3 25 -54 54 -115 83 -170 105 -219 103 -227 -1 -5 2 -8
8 -8 5 0 10 -5 10 -10 0 -10 27 -70 131 -287 27 -55 62 -130 78 -165 16 -34
52 -112 81 -173 29 -60 59 -127 67 -147 8 -21 19 -38 24 -38 5 0 8 -3 7 -7 -4
-15 44 -113 56 -114 41 -5 97 -4 104 0 4 3 40 71 79 151 271 553 361 738 367
758 4 12 12 22 17 22 5 0 8 3 7 8 -1 4 35 84 81 177 46 94 106 217 135 275 28
58 56 108 61 112 6 4 7 8 3 8 -4 0 20 53 53 119 32 65 59 122 59 125 0 4 -11
31 -24 59 -13 29 -38 82 -55 120 -17 37 -31 71 -31 76 0 5 -7 14 -15 21 -9 7
-13 15 -11 18 3 3 -1 17 -9 31 -14 26 -91 189 -135 286 -12 28 -37 82 -56 121
-18 39 -47 102 -64 140 -18 38 -42 90 -55 116 -13 25 -21 48 -19 51 2 2 -2 10
-11 17 -8 7 -15 19 -15 27 0 8 -11 34 -25 59 -14 25 -25 51 -25 59 0 8 -4 15
-8 15 -4 0 -14 17 -21 37 -8 20 -41 94 -73 163 -54 113 -78 166 -83 180 -1 3
-21 46 -44 95 -83 176 -136 289 -192 411 -36 80 -76 167 -129 279 -21 44 -47
100 -58 125 -11 25 -42 92 -70 150 -27 58 -77 168 -112 245 -35 77 -67 142
-72 143 -4 2 -8 10 -8 17 0 7 -27 70 -60 140 -33 70 -60 128 -60 130 0 1 -22
49 -49 106 -46 98 -65 141 -127 277 -15 31 -43 93 -64 137 -79 169 -113 242
-142 305 -16 36 -41 88 -55 115 -13 28 -25 52 -26 55 0 3 -12 30 -26 60 -14
30 -26 57 -26 60 -1 3 -13 29 -28 58 -15 28 -25 52 -21 52 3 0 -4 13 -15 29
-12 16 -21 32 -21 37 0 4 -14 37 -31 73 -74 153 -100 255 -94 367 4 98 7 108
44 187 89 186 308 312 579 333 48 4 90 8 95 11 4 2 7 26 7 54 l0 49 -1793 0
-1792 0 1 -47z"/>
<path d="M5269 17978 c-5 -13 -5 -88 0 -96 3 -6 42 -12 86 -15 44 -3 90 -8
101 -11 12 -2 39 -7 60 -10 22 -4 57 -11 79 -17 22 -6 51 -13 65 -16 13 -2 30
-9 37 -15 7 -6 13 -8 13 -5 0 7 106 -35 190 -75 75 -36 250 -148 250 -160 0
-4 4 -8 9 -8 11 0 102 -90 146 -145 63 -76 155 -254 169 -323 2 -10 6 -24 9
-32 9 -22 30 -131 31 -162 1 -15 4 -30 8 -33 4 -4 3 -18 -2 -31 -5 -13 -6 -24
-2 -24 4 0 6 -53 5 -117 -3 -117 -3 -131 -3 -155 0 -7 -1 -33 -4 -58 -2 -25
-7 -80 -10 -122 -8 -86 -14 -141 -21 -178 -2 -14 -7 -49 -10 -79 -4 -30 -9
-63 -11 -75 -2 -11 -6 -36 -9 -56 -3 -20 -8 -47 -11 -60 -3 -14 -7 -39 -9 -56
-3 -17 -14 -75 -26 -130 -11 -54 -23 -110 -25 -124 -3 -14 -7 -33 -10 -42 -3
-10 -7 -28 -10 -40 -5 -29 -13 -63 -19 -85 -7 -27 -26 -106 -30 -123 -2 -8
-11 -42 -21 -75 -10 -33 -18 -67 -19 -75 0 -8 -3 -19 -6 -25 -4 -5 -9 -23 -13
-40 -4 -16 -16 -61 -27 -98 -12 -37 -22 -73 -23 -80 -2 -7 -6 -19 -9 -27 -6
-16 -130 -402 -132 -410 0 -3 -11 -32 -24 -65 -12 -33 -24 -67 -26 -75 -2 -8
-11 -32 -19 -52 -9 -21 -13 -38 -10 -38 4 0 -1 -9 -11 -20 -10 -11 -16 -20
-12 -20 3 0 -17 -57 -45 -127 -27 -71 -52 -138 -55 -150 -3 -13 -9 -23 -14
-23 -5 0 -8 -3 -7 -7 3 -9 -63 -178 -92 -235 -18 -35 -18 -41 -3 -83 8 -25 17
-45 19 -45 2 0 23 42 47 93 111 230 149 311 158 331 5 11 13 28 19 36 5 8 26
51 46 95 20 44 60 130 89 190 29 61 79 164 110 230 153 319 175 367 175 376 0
5 5 9 10 9 6 0 10 6 10 14 0 8 13 41 29 73 30 58 131 269 221 458 26 55 73
154 105 220 32 66 80 167 107 225 28 58 66 136 84 174 19 37 34 74 34 82 0 8
4 14 9 14 5 0 12 13 16 29 3 16 13 35 21 42 8 6 14 16 14 22 0 6 18 47 39 92
119 244 191 397 191 406 0 5 5 9 10 9 6 0 10 6 10 14 0 13 133 280 150 301 4
6 23 39 42 75 48 91 119 204 129 208 5 2 9 9 9 16 0 33 213 281 312 363 26 21
135 93 142 93 2 0 24 9 50 20 25 12 48 21 51 21 2 0 28 7 57 15 29 7 73 14 98
14 l46 0 1 45 2 45 -1570 0 c-863 0 -1569 -1 -1570 -2z"/>
<path d="M11690 17977 c0 -2 21 -63 46 -137 25 -74 47 -142 49 -150 2 -8 70
-211 150 -450 81 -239 148 -439 149 -445 2 -5 6 -17 9 -25 4 -8 36 -107 73
-220 37 -113 69 -209 72 -215 4 -5 7 -14 8 -20 2 -11 421 -1270 431 -1295 3
-8 7 -19 9 -25 6 -22 145 -441 151 -455 3 -8 7 -19 9 -25 6 -24 65 -201 71
-215 8 -18 6 -14 22 -70 7 -25 17 -50 23 -57 5 -7 7 -17 4 -22 -4 -5 -2 -12 4
-16 5 -3 10 -12 10 -20 0 -8 5 -26 12 -42 6 -15 12 -32 14 -38 1 -5 14 -43 28
-82 14 -40 26 -77 26 -82 0 -5 5 -22 12 -38 6 -15 12 -30 13 -33 3 -16 67
-208 74 -225 5 -11 19 -49 31 -85 23 -70 23 -70 35 -115 4 -16 11 -34 15 -40
4 -5 11 -26 15 -45 4 -19 11 -39 15 -45 5 -5 9 -13 9 -17 2 -13 7 -28 56 -173
25 -77 48 -147 50 -155 2 -8 11 -35 20 -60 9 -25 18 -52 20 -60 2 -8 79 -238
170 -510 92 -272 168 -499 169 -505 4 -20 28 -90 36 -110 5 -11 21 -58 36
-105 14 -47 31 -91 37 -97 5 -7 7 -13 4 -13 -3 0 24 -87 60 -192 35 -106 66
-200 68 -208 4 -16 23 -73 36 -105 4 -11 24 -71 44 -132 20 -62 40 -114 43
-114 4 -1 422 -2 929 -3 l922 -1 20 55 c11 30 24 71 30 90 11 40 178 538 188
560 3 8 5 19 4 23 0 4 6 21 14 37 8 16 17 37 18 47 2 10 7 25 10 33 3 8 24 71
47 140 22 69 43 132 47 140 3 8 7 20 9 25 1 6 48 147 105 315 56 168 102 311
102 318 0 6 4 12 9 12 4 0 7 3 6 8 0 4 1 14 4 22 14 39 90 267 93 280 2 8 56
170 119 358 64 189 116 350 116 358 0 8 5 14 10 14 6 0 9 3 8 8 -1 4 9 41 22
82 13 41 24 77 25 80 0 3 3 10 6 15 7 10 29 77 33 98 2 7 6 19 9 27 9 23 49
144 51 155 1 6 4 15 7 20 6 9 32 83 34 95 2 9 56 175 62 190 3 8 7 17 8 20 0
3 12 37 25 75 13 39 25 75 26 80 3 14 313 937 321 955 3 8 7 20 8 26 2 6 38
114 80 240 43 126 78 235 78 242 0 6 3 12 7 12 4 0 7 6 7 13 0 10 112 351 130
397 4 8 7 17 8 20 1 3 4 12 8 20 7 19 141 423 142 430 2 12 68 206 74 215 3 6
6 15 7 21 1 7 70 215 153 463 83 247 151 453 151 456 0 3 -417 4 -926 3 l-926
-3 -13 -40 c-7 -22 -34 -112 -59 -200 -25 -88 -57 -196 -71 -240 -13 -44 -26
-89 -28 -100 -2 -11 -7 -27 -10 -35 -6 -14 -97 -323 -102 -345 -1 -5 -5 -17
-8 -25 -5 -12 -37 -123 -52 -180 -16 -58 -107 -370 -114 -390 -13 -35 -41
-131 -46 -155 -2 -11 -4 -20 -5 -20 -1 0 -3 -7 -5 -15 -11 -42 -26 -94 -50
-175 -15 -49 -28 -94 -30 -100 -1 -5 -4 -17 -7 -25 -3 -8 -13 -40 -22 -70 -8
-30 -23 -82 -33 -115 -9 -33 -18 -62 -18 -65 -1 -3 -4 -12 -8 -20 -7 -20 -68
-230 -72 -253 -2 -9 -7 -22 -10 -27 -4 -6 -8 -20 -10 -33 -3 -12 -25 -92 -51
-177 -25 -85 -50 -171 -55 -190 -6 -19 -19 -64 -30 -100 -10 -36 -21 -74 -23
-85 -3 -11 -11 -39 -20 -63 -8 -23 -15 -44 -16 -47 0 -3 0 -6 -1 -7 0 -2 -2
-10 -4 -18 -2 -8 -34 -116 -70 -240 -37 -124 -71 -238 -75 -255 -5 -16 -14
-48 -21 -70 -7 -22 -13 -42 -14 -45 -1 -3 -5 -21 -9 -40 -5 -19 -13 -41 -18
-47 -6 -7 -8 -13 -5 -13 2 0 -6 -37 -20 -82 -14 -46 -25 -89 -26 -95 0 -7 -3
-13 -7 -13 -3 0 -6 -9 -7 -21 -1 -12 -12 -51 -24 -87 -11 -37 -22 -71 -23 -77
-10 -47 -19 -82 -24 -90 -4 -5 -7 -14 -8 -20 -3 -15 -35 -128 -41 -145 -3 -8
-7 -19 -9 -25 -21 -81 -34 -127 -39 -135 -4 -6 -8 -22 -11 -36 -3 -14 -11 -44
-18 -67 -8 -23 -22 -69 -32 -102 -10 -33 -18 -62 -19 -65 -1 -3 -5 -22 -9 -43
-5 -20 -12 -39 -16 -42 -4 -2 -17 30 -30 73 -12 42 -38 129 -56 192 -19 63
-36 122 -38 130 -2 8 -6 22 -9 30 -3 8 -15 49 -27 90 -11 41 -25 91 -30 110
-5 19 -16 58 -25 85 -45 150 -127 432 -130 448 -2 9 -6 21 -9 25 -3 5 -7 19
-10 33 -3 13 -14 56 -26 94 -12 39 -23 77 -25 85 -2 8 -11 40 -20 70 -9 30
-23 79 -31 109 -8 29 -17 58 -20 62 -5 8 -11 33 -18 76 -1 7 -5 16 -9 19 -4 4
-7 17 -7 29 0 12 -3 25 -7 29 -4 3 -8 12 -9 19 -3 19 -77 272 -134 462 -12 39
-23 77 -25 85 -2 8 -20 71 -40 140 -20 69 -43 148 -51 175 -8 28 -17 57 -19
65 -3 8 -12 42 -20 75 -9 33 -19 67 -22 75 -4 8 -7 18 -8 23 -2 4 -4 9 -5 12
-1 3 -3 8 -4 13 -7 29 -21 80 -46 162 -16 52 -36 120 -44 150 -8 30 -31 111
-51 180 -21 69 -38 130 -40 135 -1 6 -5 17 -8 25 -6 16 -26 89 -28 105 0 6 -5
17 -10 26 -4 9 -11 31 -14 49 -3 18 -10 40 -14 49 -5 9 -9 19 -10 24 -1 4 -1
8 -2 10 0 1 -2 9 -4 17 -2 8 -18 65 -35 125 -18 61 -33 115 -35 120 -1 6 -4
17 -7 25 -3 8 -11 35 -18 60 -19 69 -32 113 -38 130 -3 8 -6 20 -7 25 -2 6
-19 66 -40 135 -20 69 -38 132 -40 140 -2 8 -11 40 -20 70 -9 30 -20 69 -25
85 -4 17 -18 62 -29 100 -12 39 -23 77 -26 85 -2 8 -4 17 -5 20 -1 3 -2 9 -1
14 1 4 -3 14 -10 22 -6 7 -8 18 -5 23 4 5 2 12 -4 16 -6 4 -8 10 -5 15 3 5 1
11 -4 14 -5 4 -12 24 -16 46 l-7 40 -924 0 c-508 0 -924 -1 -924 -3z"/>
<path d="M8610 17679 c-19 -4 -38 -5 -42 -3 -5 3 -8 1 -8 -3 0 -5 -8 -9 -17
-10 -51 -4 -263 -96 -263 -114 0 -5 -3 -8 -8 -6 -12 4 -124 -87 -177 -144
-103 -111 -190 -270 -221 -404 -1 -5 -5 -23 -9 -40 -13 -56 -13 -268 0 -331
45 -217 162 -408 337 -551 44 -36 154 -99 210 -121 57 -22 93 -34 93 -32 0 1
14 -4 30 -10 78 -30 278 -33 404 -7 53 11 98 23 101 26 3 3 12 7 20 9 14 3
131 60 175 85 177 102 357 355 400 562 30 141 28 301 -5 427 -39 144 -122 288
-234 403 -131 134 -291 222 -471 258 -73 15 -257 19 -315 6z"/>
<path d="M10643 17675 c-29 -7 -53 -11 -53 -9 0 2 -24 -6 -52 -17 -29 -11 -55
-21 -58 -20 -23 1 -234 -122 -224 -132 3 -3 -3 -8 -13 -11 -28 -9 -143 -131
-190 -201 -65 -98 -111 -207 -139 -330 -3 -16 -8 -82 -9 -145 -3 -105 1 -149
20 -235 11 -50 10 -46 32 -102 3 -10 7 -20 8 -23 1 -3 12 -27 25 -55 54 -113
159 -242 260 -320 57 -43 180 -118 180 -109 0 2 11 -3 24 -11 13 -9 32 -18 42
-20 11 -3 53 -15 94 -26 139 -39 364 -29 505 22 55 20 195 92 195 100 0 5 6 9
13 9 7 0 27 14 45 30 18 17 36 30 39 30 3 0 32 28 65 63 173 184 261 409 253
646 -5 120 -25 231 -46 255 -5 6 -9 17 -9 26 0 23 -45 114 -97 193 -46 73
-170 203 -222 233 -17 10 -31 22 -31 26 0 4 -6 8 -14 8 -8 0 -21 6 -28 13 -11
10 -84 49 -98 52 -3 0 -15 6 -27 13 -13 7 -23 10 -23 6 0 -3 -6 -2 -12 3 -12
9 -63 24 -133 39 -56 13 -269 12 -322 -1z"/>
<path d="M25807 15824 c-1 -1 -40 -5 -87 -9 -117 -9 -145 -12 -220 -25 -36 -6
-80 -13 -99 -16 -19 -2 -52 -9 -75 -15 -23 -5 -52 -12 -66 -15 -14 -2 -32 -7
-40 -10 -8 -3 -25 -8 -38 -10 -21 -4 -190 -58 -222 -71 -8 -4 -17 -7 -20 -7
-30 -5 -324 -146 -332 -159 -4 -7 -8 -9 -8 -5 0 4 -26 -9 -57 -28 -99 -63
-168 -107 -173 -113 -3 -4 -32 -26 -65 -51 -71 -53 -87 -66 -130 -105 -18 -16
-44 -39 -56 -51 -47 -42 -175 -181 -230 -250 -52 -65 -165 -227 -198 -284 -70
-122 -91 -163 -91 -177 0 -7 -4 -13 -10 -13 -5 0 -10 -4 -10 -10 0 -5 -11 -33
-24 -62 -13 -29 -35 -82 -49 -118 -13 -36 -28 -74 -32 -85 -5 -11 -9 -24 -11
-30 -1 -5 -15 -50 -29 -100 -15 -49 -29 -98 -31 -107 -12 -54 -15 -65 -19 -88
-3 -14 -7 -36 -10 -50 -7 -34 -13 -68 -20 -115 -3 -23 -7 -50 -9 -62 -19 -98
-26 -476 -12 -628 16 -173 15 -166 41 -301 23 -112 22 -111 44 -194 27 -102
71 -232 83 -247 6 -7 8 -13 5 -13 -9 0 70 -177 120 -270 50 -92 116 -202 142
-236 9 -12 23 -32 31 -44 53 -79 140 -181 250 -291 235 -236 476 -397 813
-544 46 -20 200 -74 242 -85 17 -5 62 -18 100 -29 39 -12 84 -24 100 -27 17
-2 46 -9 65 -14 19 -5 51 -11 70 -14 19 -3 46 -8 59 -10 12 -3 42 -7 65 -10
22 -3 57 -8 76 -10 139 -21 622 -28 755 -11 39 5 82 9 98 9 15 1 27 3 27 6 0
3 8 6 18 6 34 1 109 13 181 29 40 10 78 18 85 20 6 1 18 5 26 8 8 3 35 11 60
17 60 15 223 71 234 82 6 4 16 8 23 8 39 0 411 206 473 262 8 8 35 29 60 48
126 95 298 263 390 380 19 25 41 51 48 60 44 50 62 77 62 93 0 9 -4 17 -10 17
-5 0 -39 18 -75 40 -36 22 -70 40 -75 40 -6 0 -10 5 -10 10 0 6 -5 10 -11 10
-6 0 -39 17 -73 37 -33 21 -63 38 -66 38 -3 0 -16 8 -30 17 -55 35 -152 88
-161 88 -5 0 -9 5 -9 10 0 6 -4 10 -10 10 -5 0 -33 14 -62 31 -29 18 -66 39
-83 49 -57 32 -160 91 -175 100 -16 10 -189 109 -252 144 l-36 21 -29 -29
c-37 -38 -126 -105 -188 -143 -98 -59 -317 -149 -335 -138 -5 3 -11 1 -14 -4
-3 -5 -20 -12 -38 -15 -18 -3 -43 -8 -55 -11 -13 -3 -31 -7 -40 -9 -75 -16
-190 -27 -298 -27 -87 -1 -232 9 -255 16 -10 3 -35 7 -56 10 -106 11 -346 98
-396 142 -10 9 -18 13 -18 9 0 -3 -30 17 -67 45 -88 66 -199 183 -256 268 -52
77 -134 234 -159 302 l-16 47 586 0 c323 0 592 1 597 2 6 1 12 1 15 0 15 -6
69 -5 98 1 17 4 32 4 32 0 0 -7 474 -6 494 2 8 3 17 3 20 0 9 -9 56 -10 94 -2
17 4 32 4 32 0 0 -5 469 -6 495 -1 6 1 12 1 15 0 15 -6 69 -5 98 1 17 4 32 4
32 0 0 -7 474 -6 494 2 8 3 17 3 20 0 9 -9 56 -10 94 -2 17 4 32 4 32 0 0 -7
339 -5 347 2 2 3 7 20 10 39 3 18 9 41 14 51 5 9 8 17 5 17 -2 0 0 17 5 38 19
81 24 144 23 327 -1 171 -4 227 -19 345 -16 130 -43 278 -55 310 -5 14 -11 36
-13 50 -2 14 -6 32 -9 40 -3 8 -25 76 -49 150 -24 74 -47 138 -51 141 -5 3
-10 16 -13 29 -5 27 -99 219 -149 305 -19 33 -38 67 -42 75 -4 8 -10 17 -13
20 -3 3 -26 35 -51 73 -25 37 -48 67 -52 67 -5 0 -8 5 -8 11 0 27 -210 257
-341 372 -59 53 -221 177 -267 204 -109 66 -251 144 -269 149 -13 4 -23 10
-23 15 0 5 -7 9 -16 9 -9 0 -28 6 -42 14 -89 47 -312 119 -482 154 -87 19
-115 23 -220 38 -19 3 -64 7 -100 9 -36 2 -65 5 -65 6 0 2 -316 5 -318 3z
m308 -1328 c33 -4 84 -13 113 -20 28 -8 52 -12 52 -9 0 3 6 1 13 -5 6 -5 28
-13 47 -17 53 -11 174 -70 248 -119 173 -115 314 -305 386 -520 14 -42 26 -78
26 -80 0 -1 -479 -3 -1064 -3 -966 0 -1064 2 -1061 16 6 31 38 117 63 171 14
30 24 58 24 63 -1 4 3 7 8 7 6 0 10 5 10 11 0 31 133 197 216 269 89 78 300
189 335 177 3 -1 12 3 20 9 13 11 34 17 99 29 14 3 36 7 50 10 14 2 52 7 85
11 33 3 61 7 62 8 5 4 214 -2 268 -8z"/>
<path d="M18046 14063 c1 -885 5 -1637 8 -1673 13 -140 20 -187 42 -300 19
-96 53 -239 64 -265 4 -11 18 -49 30 -85 25 -77 29 -85 96 -235 8 -16 28 -52
44 -80 17 -27 33 -58 37 -67 3 -10 9 -18 14 -18 5 0 9 -5 9 -11 0 -33 210
-272 326 -370 39 -33 209 -149 219 -149 4 0 19 -8 33 -18 25 -18 211 -101 236
-107 6 -1 25 -8 41 -14 17 -7 37 -14 45 -16 8 -2 35 -9 60 -16 25 -7 48 -13
53 -15 4 -1 8 -2 10 -4 1 -1 18 -4 37 -6 19 -3 49 -9 65 -14 35 -10 118 -23
158 -24 15 -1 27 -3 27 -6 0 -8 78 -11 355 -14 143 -2 264 -1 270 2 5 4 25 7
43 9 104 8 320 58 407 94 17 7 35 13 42 15 53 11 271 140 347 204 93 80 206
208 271 308 15 23 31 42 34 42 4 0 7 -120 7 -266 -1 -166 3 -268 9 -273 8 -5
1440 -7 1465 -2 3 1 5 1120 4 2489 l0 2487 -790 3 -790 2 0 -1342 c-1 -1232
-4 -1467 -20 -1568 -14 -85 -37 -186 -47 -197 -5 -7 -7 -13 -3 -13 6 0 -22
-74 -52 -140 -66 -144 -195 -271 -346 -339 -25 -12 -51 -21 -58 -21 -8 0 -18
-4 -24 -8 -5 -5 -34 -14 -64 -20 -30 -6 -68 -14 -85 -18 -41 -9 -385 -14 -385
-6 0 4 -15 8 -33 9 -36 3 -44 5 -107 22 -56 16 -190 80 -190 91 0 5 -8 11 -18
14 -16 5 -70 56 -114 106 -52 60 -131 220 -141 285 -1 11 -5 25 -9 30 -7 11
-26 111 -35 179 -3 23 -7 52 -10 66 -3 14 -6 662 -8 1440 -2 778 -4 1418 -4
1423 -1 4 -356 7 -789 7 l-788 0 2 -1607z"/>
<path d="M7943 13088 c0 -1730 3 -2398 11 -2399 38 -4 1589 -3 1594 1 4 3 7
1082 7 2398 0 2119 -2 2392 -15 2393 -8 1 -371 2 -806 3 l-791 1 0 -2397z"/>
<path d="M9998 15482 c-15 -3 -16 -222 -16 -2397 0 -2216 1 -2393 16 -2397 29
-6 1581 -3 1587 4 8 7 12 4788 5 4789 -13 3 -1578 4 -1592 1z"/>
</g>
</svg>
