<svg xmlns:xlink="http://www.w3.org/1999/xlink" width="124" height="124" viewBox="0 0 124 124" fill="none" xmlns="http://www.w3.org/2000/svg">
<path fill-rule="evenodd" clip-rule="evenodd" d="M62.4512 44.6753C62.4512 44.2611 62.787 43.9253 63.2012 43.9253H85.2012C89.1154 43.9253 92.3512 47.1611 92.3512 51.0753V99.8753C92.3512 100.29 92.0154 100.625 91.6012 100.625C91.187 100.625 90.8512 100.29 90.8512 99.8753V51.0753C90.8512 47.9895 88.287 45.4253 85.2012 45.4253H63.2012C62.787 45.4253 62.4512 45.0895 62.4512 44.6753Z" fill="black"></path>
<path fill-rule="evenodd" clip-rule="evenodd" d="M54.2781 43.9257C54.6921 43.9129 55.0381 44.2382 55.0508 44.6522C55.0636 45.0663 54.7383 45.4122 54.3243 45.4249L54.3012 44.6753L54.2781 43.9257ZM16.1453 45.9798C16.2045 45.9679 16.2907 45.9536 16.409 45.9384C16.7715 45.8921 17.3149 45.8523 18.0081 45.8197C19.388 45.7548 21.2915 45.7212 23.3705 45.7078C27.5252 45.681 32.3434 45.7348 34.9897 45.7752C37.6552 45.8159 42.4951 45.7279 46.6551 45.6304C48.738 45.5816 50.6551 45.5302 52.0514 45.4911C52.7496 45.4715 53.3177 45.455 53.7113 45.4433L54.3243 45.4249C54.3244 45.4249 54.3243 45.4249 54.3012 44.6753C54.2781 43.9257 54.2782 43.9257 54.2781 43.9257L53.667 43.944C53.2741 43.9556 52.7068 43.9721 52.0094 43.9916C50.6146 44.0307 48.6999 44.082 46.6199 44.1308C42.4541 44.2285 37.6439 44.3155 35.0126 44.2754C32.3622 44.235 27.5315 44.1809 23.3608 44.2078C21.2772 44.2213 19.349 44.255 17.9376 44.3214C17.2351 44.3544 16.6429 44.3963 16.2187 44.4506C16.0121 44.477 15.8127 44.5102 15.6517 44.5568C15.6004 44.5716 15.5303 44.594 15.4554 44.6286C13.6399 44.6775 11.8294 45.2664 10.4378 46.3135C8.97782 47.4119 7.9584 49.0368 7.95123 51.0539C6.85642 70.8415 6.76341 81.5448 7.95275 99.9237C7.9795 100.337 8.33627 100.65 8.74962 100.624C9.16297 100.597 9.47637 100.24 9.44962 99.8269C8.26452 81.5134 8.35678 70.8704 9.45004 51.1167C9.45081 51.1029 9.45119 51.0891 9.45119 51.0753C9.45119 49.6023 10.1797 48.3848 11.3396 47.5121C12.5101 46.6314 14.0982 46.1253 15.7012 46.1253C15.8674 46.1253 16.0209 46.0712 16.1453 45.9798ZM16.4512 45.378C16.451 45.4329 16.4451 45.4835 16.4352 45.5301C16.4455 45.481 16.451 45.4302 16.4512 45.378Z" fill="black"></path>
<path fill-rule="evenodd" clip-rule="evenodd" d="M58.8501 102.227C74.7704 101.14 83.5989 101.358 99.2428 102.226C99.6402 102.248 99.9512 102.577 99.9512 102.975V107.175C99.9512 110.079 97.626 112.525 94.6012 112.525H86.6012C86.187 112.525 85.8512 112.189 85.8512 111.775C85.8512 111.361 86.187 111.025 86.6012 111.025H94.6012C96.7764 111.025 98.4512 109.272 98.4512 107.175V103.685C83.497 102.863 74.7949 102.664 59.6011 103.68C59.4408 104.769 58.9028 105.631 58.081 106.231C57.1217 106.931 55.8465 107.225 54.5012 107.225H45.6012C44.3006 107.225 43.0303 106.929 42.0635 106.234C41.2383 105.641 40.6751 104.784 40.5051 103.691C25.2111 102.925 16.4992 102.925 1.75119 103.687V107.175C1.75119 107.279 1.75091 107.38 1.75064 107.476C1.7492 107.989 1.74804 108.404 1.79027 108.781C1.83845 109.21 1.93728 109.51 2.10947 109.749C2.45763 110.232 3.30757 110.733 5.69422 111.031C6.24517 111.1 7.76032 111.156 10.0522 111.198C12.3221 111.239 15.3055 111.264 18.7542 111.278C25.6511 111.306 34.3986 111.288 42.9979 111.25C51.5969 111.213 60.0461 111.156 66.3456 111.11C69.4954 111.086 72.1076 111.065 73.9324 111.05C74.8448 111.042 75.5604 111.036 76.0478 111.032L76.7937 111.025C76.7942 111.025 76.7944 111.025 76.8012 111.775C76.808 112.525 76.8077 112.525 76.8072 112.525L76.0609 112.532C75.5733 112.536 74.8576 112.542 73.945 112.55C72.1198 112.565 69.507 112.586 66.3568 112.61C60.0563 112.656 51.6055 112.713 43.0045 112.75C34.4038 112.788 25.6513 112.806 18.7481 112.778C15.2969 112.764 12.3053 112.738 10.0252 112.697C7.76707 112.657 6.15722 112.601 5.50817 112.519C3.09481 112.218 1.64475 111.669 0.892921 110.626C0.515107 110.103 0.363938 109.521 0.299616 108.948C0.246892 108.478 0.248731 107.96 0.250539 107.451C0.250867 107.359 0.251194 107.267 0.251194 107.175V102.975C0.251194 102.576 0.563438 102.247 0.961786 102.226C16.4103 101.413 25.2374 101.412 41.2393 102.226C41.6382 102.247 41.9512 102.576 41.9512 102.975C41.9512 103.936 42.3365 104.583 42.9389 105.016C43.5721 105.471 44.5018 105.725 45.6012 105.725H54.5012C55.6559 105.725 56.5807 105.469 57.1964 105.02C57.7797 104.594 58.1512 103.95 58.1512 102.975C58.1512 102.581 58.4566 102.254 58.8501 102.227ZM76.8012 111.775L76.8072 112.525C77.2214 112.521 77.5549 112.183 77.5512 111.768C77.5474 111.354 77.2079 111.022 76.7937 111.025L76.8012 111.775Z" fill="black"></path>
<path fill-rule="evenodd" clip-rule="evenodd" d="M28.2522 90.5365C28.2736 90.1228 28.6263 89.8048 29.0399 89.8262C47.4631 90.7782 57.9509 90.78 76.7633 89.8262C77.1769 89.8052 77.5293 90.1236 77.5503 90.5372C77.5713 90.9509 77.2529 91.3033 76.8392 91.3243C57.9767 92.2807 47.4376 92.2789 28.9625 91.3242C28.5489 91.3028 28.2309 90.9502 28.2522 90.5365Z" fill="black"></path>
<path d="M83.0013 94.1751C85.0013 94.1751 86.6012 92.5751 86.6012 90.5751C86.6012 88.5751 85.0013 86.9751 83.0013 86.9751C81.0013 86.9751 79.4012 88.5751 79.4012 90.5751C79.4012 92.5751 81.0013 94.1751 83.0013 94.1751Z" fill="black"></path>
<path d="M61.5011 83.3751H27.8011C25.6011 83.3751 23.8011 81.5751 23.8011 79.3751V54.9751C23.8011 52.7751 25.6011 50.9751 27.8011 50.9751H61.5011C63.7011 50.9751 65.5012 52.7751 65.5012 54.9751V79.2751C65.5012 81.5751 63.7011 83.3751 61.5011 83.3751Z" fill="black"></path>
<path d="M112.801 81.8751V88.4751C112.801 91.7751 110.101 94.4751 106.801 94.4751C96.5231 95.195 90.8062 95.3309 80.8012 94.4751C77.5012 94.4751 74.8012 91.7751 74.8012 88.4751C73.6535 64.2209 74.9159 49.7617 74.8012 28.4751C74.8012 25.1751 77.5012 22.4751 80.8012 22.4751C92.756 23.0961 97.474 22.76 106.801 22.4751C110.101 22.4751 112.801 25.1751 112.801 28.4751C113.195 44.5179 113.175 53.0917 112.801 67.7751" fill="#FFFFFF"></path>
<path fill-rule="evenodd" clip-rule="evenodd" d="M75.5512 28.4731C75.5936 36.3367 75.4492 43.2513 75.307 50.0593C75.0629 61.7465 74.8254 73.1195 75.5504 88.4396L75.5512 88.4574V88.4751C75.5512 91.3609 77.9155 93.7251 80.8012 93.7251H80.8333L80.8652 93.7278C90.8203 94.5794 96.4966 94.445 106.749 93.7269L106.775 93.7251H106.801C109.687 93.7251 112.051 91.3609 112.051 88.4751V81.8751C112.051 81.4609 112.387 81.1251 112.801 81.1251C113.215 81.1251 113.551 81.4609 113.551 81.8751V88.4751C113.551 92.1803 110.53 95.2104 106.828 95.225C96.5508 95.9445 90.7956 96.0815 80.7683 95.225C77.0752 95.2072 74.0612 92.1883 74.0513 88.4934C73.3255 73.1434 73.5641 61.6772 73.8082 49.9516C73.9498 43.1509 74.0932 36.2628 74.0513 28.4791L74.0512 28.4751C74.0512 24.7609 77.087 21.7251 80.8012 21.7251H80.8207L80.8402 21.7261C91.0052 22.2542 95.9092 22.0884 102.923 21.8513C104.133 21.8104 105.405 21.7674 106.778 21.7254L106.79 21.7251H106.801C110.512 21.7251 113.546 24.7557 113.551 28.4656C113.945 44.5151 113.925 53.101 113.551 67.7942C113.54 68.2083 113.196 68.5354 112.782 68.5249C112.368 68.5143 112.041 68.1701 112.051 67.756C112.425 53.0851 112.445 44.5239 112.051 28.4935L112.051 28.4843V28.4751C112.051 25.593 109.693 23.2311 106.812 23.2251C105.449 23.2668 104.183 23.3096 102.977 23.3504C95.9575 23.5877 90.9997 23.7553 80.7824 23.2251C77.9059 23.2354 75.5523 25.5945 75.5512 28.4731Z" fill="black"></path>
<path fill-rule="evenodd" clip-rule="evenodd" d="M100.986 44.4072C98.6072 41.4544 96.2533 40.0382 93.8589 40.2229C93.8397 40.2243 93.8204 40.2251 93.8012 40.2251C90.7822 40.2251 88.1198 41.8711 86.6464 44.3574L86.64 44.3682L86.6399 44.3682C85.923 45.5332 85.5479 46.8985 85.4512 48.497C85.4574 50.8859 86.4722 53.1596 88.1843 54.6014C88.1945 54.61 88.2044 54.6188 88.2141 54.6279C89.6666 55.9896 91.5797 56.7251 93.7012 56.7251C95.8019 56.7251 97.7302 55.9031 99.2073 54.6107C100.672 53.3292 101.683 51.4933 101.958 49.4738C101.964 49.4276 101.975 49.3821 101.99 49.3379C102.043 49.1786 102.051 48.9176 102.051 48.4751C102.051 47.0097 101.688 45.566 100.986 44.4072ZM93.7725 38.7251C96.9112 38.496 99.696 40.4018 102.186 43.5058C102.206 43.53 102.224 43.5555 102.24 43.582C103.123 45.0167 103.551 46.757 103.551 48.4751C103.551 48.493 103.551 48.5114 103.551 48.5302C103.552 48.8656 103.552 49.3351 103.436 49.7383C103.099 52.0943 101.915 54.2342 100.195 55.7395C98.4722 57.247 96.2004 58.2251 93.7012 58.2251C91.2296 58.2251 88.9485 57.3654 87.2028 55.7359C85.1296 53.9816 83.9512 51.2713 83.9512 48.4751C83.9512 48.4604 83.9516 48.4457 83.9525 48.431C84.0577 46.6413 84.4816 45.0156 85.3591 43.5874C87.0818 40.6845 90.2056 38.7355 93.7725 38.7251Z" fill="black"></path>
<path fill-rule="evenodd" clip-rule="evenodd" d="M93.7012 50.7251C91.0916 50.7251 88.8952 52.7328 88.5442 55.2776C88.4876 55.6879 88.1091 55.9747 87.6988 55.9181C87.2884 55.8615 87.0017 55.4829 87.0583 55.0726C87.5073 51.8174 90.3108 49.2251 93.7012 49.2251H93.9012C97.2916 49.2251 100.095 51.8174 100.544 55.0726C100.601 55.4829 100.314 55.8615 99.9037 55.9181C99.4934 55.9747 99.1149 55.6879 99.0583 55.2776C98.7073 52.7328 96.5108 50.7251 93.9012 50.7251H93.7012Z" fill="black"></path>
<path fill-rule="evenodd" clip-rule="evenodd" d="M112.907 42.2328C113.317 42.2914 113.602 42.6714 113.544 43.0814C113.506 43.3473 113.362 43.6109 113.234 43.8122C113.089 44.0412 112.892 44.2992 112.651 44.5731C112.167 45.1221 111.475 45.7659 110.588 46.4018C108.81 47.6749 106.22 48.9341 102.888 49.3202C102.476 49.3679 102.104 49.073 102.056 48.6615C102.009 48.25 102.303 47.8778 102.715 47.8302C105.761 47.4773 108.114 46.3286 109.714 45.1824C110.515 44.6086 111.121 44.04 111.526 43.581C111.729 43.3508 111.874 43.1559 111.967 43.009C112.044 42.889 112.063 42.8348 112.064 42.8353C112.064 42.8353 112.064 42.8353 112.064 42.8353C112.138 42.4435 112.509 42.1757 112.907 42.2328Z" fill="black"></path>
<path fill-rule="evenodd" clip-rule="evenodd" d="M74.803 43.7251C74.868 43.7638 74.9552 43.8184 75.069 43.8928C75.2517 44.0122 75.4728 44.1623 75.7391 44.343C75.7816 44.3719 75.8253 44.4016 75.8702 44.4321C76.1931 44.6511 76.57 44.9059 76.9978 45.1865C78.711 46.3104 81.2389 47.8495 84.5031 49.2633C84.8832 49.4279 85.3248 49.2532 85.4894 48.8731C85.654 48.493 85.4794 48.0515 85.0993 47.8868C81.9401 46.5185 79.4904 45.0278 77.8206 43.9324C77.4028 43.6582 77.0336 43.4087 76.7124 43.1908C76.6684 43.161 76.6253 43.1317 76.5829 43.1029C76.3182 42.9232 76.0843 42.7644 75.8896 42.6372C75.6756 42.4972 75.4626 42.3643 75.2883 42.2858C75.2233 42.2565 75.0469 42.1779 74.8363 42.1818C74.7132 42.1841 74.5063 42.2164 74.3209 42.3791C74.1292 42.5473 74.0687 42.7593 74.0548 42.9022C74.0145 43.3144 74.3161 43.6813 74.7283 43.7215C74.7534 43.724 74.7783 43.7251 74.803 43.7251ZM74.6723 43.6535C74.6728 43.6537 74.6732 43.6539 74.6736 43.6541C74.6555 43.6477 74.6536 43.6451 74.6723 43.6535Z" fill="black"></path>
<path d="M82.8011 79.4751H104.801C105.901 79.4751 106.801 80.3751 106.801 81.4751V85.4751C106.801 86.5751 105.901 87.4751 104.801 87.4751H82.8011C81.7011 87.4751 80.8011 86.5751 80.8011 85.4751V81.4751C80.8011 80.3751 81.7011 79.4751 82.8011 79.4751Z" fill="black"></path>
<path d="M103.101 30.6751C103.101 29.4751 102.501 28.2751 101.501 27.5751C99.4013 25.9751 99.3012 22.8751 101.301 21.1751C102.201 20.3751 102.801 19.1751 102.701 17.9751C102.601 15.3751 105.001 13.3751 107.501 13.8751C108.701 14.0751 110.001 13.7751 110.901 12.9751C112.901 11.2751 115.901 11.8751 117.101 14.1751C117.701 15.2751 118.701 16.0751 119.901 16.2751C122.501 16.7751 123.901 19.5751 122.801 21.8751C122.301 22.9751 122.301 24.2751 122.901 25.3751C124.101 27.6751 122.801 30.5751 120.301 31.1751C119.101 31.4751 118.101 32.3751 117.601 33.4751C116.501 35.8751 113.501 36.6751 111.401 35.0751C110.401 34.3751 109.101 34.0751 107.901 34.3751C105.601 35.1751 103.101 33.2751 103.101 30.6751Z" fill="black"></path>
<path fill-rule="evenodd" clip-rule="evenodd" d="M117.844 20.4579C118.13 20.7578 118.118 21.2325 117.818 21.5182L111.518 27.5182C111.228 27.7952 110.77 27.7939 110.481 27.5153L107.781 24.9153C107.483 24.628 107.474 24.1532 107.761 23.8549C108.048 23.5565 108.523 23.5475 108.821 23.8349L111.004 25.9367L116.784 20.432C117.084 20.1463 117.559 20.1579 117.844 20.4579Z" fill="#FFFFFF"></path>
<path fill-rule="evenodd" clip-rule="evenodd" d="M102.872 61.4397C103.057 61.8101 102.907 62.2606 102.537 62.4459C99.7633 63.8325 96.5068 64.0257 93.5753 63.9246C92.9806 63.9041 92.3896 63.8761 91.8022 63.8482C89.4565 63.7368 87.1678 63.6281 84.9286 64.0142C84.5204 64.0845 84.1324 63.8107 84.0621 63.4025C83.9917 62.9943 84.2655 62.6063 84.6737 62.536C87.0916 62.1191 89.5892 62.239 91.9493 62.3524C92.5175 62.3797 93.0778 62.4066 93.627 62.4255C96.4955 62.5244 99.439 62.3176 101.866 61.1042C102.236 60.919 102.687 61.0692 102.872 61.4397Z" fill="black"></path>
<path fill-rule="evenodd" clip-rule="evenodd" d="M106.539 65.8383C106.614 66.2455 106.345 66.637 105.938 66.7126C98.8822 68.023 91.6183 68.5283 84.4486 68.0234C84.0354 67.9943 83.724 67.6357 83.7531 67.2225C83.7822 66.8094 84.1407 66.498 84.5539 66.5271C91.5842 67.0222 98.7203 66.5274 105.664 65.2378C106.072 65.1622 106.463 65.431 106.539 65.8383Z" fill="black"></path>
<path fill-rule="evenodd" clip-rule="evenodd" d="M103.332 71.4695C103.556 71.818 103.455 72.282 103.107 72.506C101.52 73.5259 99.6277 73.5255 98.0885 73.5251C98.0593 73.5251 98.0302 73.5251 98.0012 73.5251L97.9849 73.5249C93.3944 73.4251 88.8025 73.4251 84.2012 73.4251C83.787 73.4251 83.4512 73.0893 83.4512 72.6751C83.4512 72.2609 83.787 71.9251 84.2012 71.9251H84.2054C88.7999 71.9251 93.4039 71.9251 98.0093 72.0251C99.6515 72.025 101.114 72.0036 102.296 71.2442C102.644 71.0202 103.108 71.1211 103.332 71.4695Z" fill="black"></path>
<path fill-rule="evenodd" clip-rule="evenodd" d="M44.151 58.2579C44.1604 58.672 43.8324 59.0153 43.4183 59.0247C41.2599 59.0738 39.0767 59.147 36.8765 59.2207L36.7639 59.2245C34.5269 59.2995 32.2728 59.3746 30.0179 59.4247C29.6038 59.4339 29.2606 59.1057 29.2514 58.6916C29.2422 58.2775 29.5705 57.9343 29.9846 57.9251C32.2297 57.8752 34.4755 57.8003 36.7136 57.7253L36.8298 57.7214C39.0275 57.6478 41.2176 57.5743 43.3842 57.5251C43.7983 57.5157 44.1416 57.8438 44.151 58.2579Z" fill="#FFFFFF"></path>
<path fill-rule="evenodd" clip-rule="evenodd" d="M47.251 66.6603C47.2593 67.0744 46.9303 67.4169 46.5162 67.4251C44.0167 67.4751 41.5422 67.5251 39.0676 67.5751L39.0663 67.5751C36.5914 67.6251 34.1163 67.6751 31.6162 67.7251C31.2021 67.7334 30.8596 67.4044 30.8513 66.9903C30.8431 66.5762 31.1721 66.2337 31.5862 66.2254C34.0858 66.1754 36.5605 66.1255 39.0352 66.0755L39.0361 66.0754C41.511 66.0254 43.9861 65.9754 46.4862 65.9254C46.9003 65.9172 47.2428 66.2462 47.251 66.6603Z" fill="#FFFFFF"></path>
<path fill-rule="evenodd" clip-rule="evenodd" d="M50.3503 74.2392C50.37 74.653 50.0506 75.0044 49.6369 75.0241C46.4839 75.1742 43.3314 75.2993 40.1824 75.4243L40.1809 75.4243C37.0304 75.5493 33.8834 75.6742 30.7369 75.8241C30.3231 75.8438 29.9717 75.5243 29.952 75.1106C29.9323 74.6968 30.2518 74.3455 30.6655 74.3258C33.8185 74.1756 36.971 74.0505 40.12 73.9256L40.1214 73.9255C43.2719 73.8005 46.419 73.6756 49.5655 73.5258C49.9793 73.5061 50.3306 73.8255 50.3503 74.2392Z" fill="#FFFFFF"></path>
</svg>