<svg xmlns:xlink="http://www.w3.org/1999/xlink" width="124" height="124" viewBox="0 0 124 124" fill="none" xmlns="http://www.w3.org/2000/svg">
<path fill-rule="evenodd" clip-rule="evenodd" d="M50.6005 11.4282C51.0147 11.4282 51.3505 11.764 51.3505 12.1782V53.9782C51.3505 54.3924 51.0147 54.7282 50.6005 54.7282C50.1863 54.7282 49.8505 54.3924 49.8505 53.9782V12.1782C49.8505 11.764 50.1863 11.4282 50.6005 11.4282Z" fill="black"></path>
<path fill-rule="evenodd" clip-rule="evenodd" d="M70.2004 13.6782C70.4766 13.6782 70.7004 13.9021 70.7004 14.1782V73.7782C70.7004 74.0544 70.4766 74.2782 70.2004 74.2782C69.9243 74.2782 69.7004 74.0544 69.7004 73.7782V14.1782C69.7004 13.9021 69.9243 13.6782 70.2004 13.6782Z" fill="black"></path>
<path fill-rule="evenodd" clip-rule="evenodd" d="M90.0005 13.4282C90.4147 13.4282 90.7505 13.764 90.7505 14.1782V66.8782C90.7505 67.2924 90.4147 67.6282 90.0005 67.6282C89.5863 67.6282 89.2505 67.2924 89.2505 66.8782V14.1782C89.2505 13.764 89.5863 13.4282 90.0005 13.4282Z" fill="black"></path>
<path fill-rule="evenodd" clip-rule="evenodd" d="M109.615 27.2329C110.027 27.186 110.399 27.4816 110.446 27.8931C112.495 45.8678 112.622 55.9819 110.445 73.9682C110.395 74.3794 110.022 74.6724 109.61 74.6227C109.199 74.5729 108.906 74.1992 108.956 73.788C111.117 55.9291 110.993 45.933 108.955 28.0631C108.908 27.6515 109.204 27.2799 109.615 27.2329Z" fill="black"></path>
<path fill-rule="evenodd" clip-rule="evenodd" d="M50.6858 11.4284C75.1905 10.9503 88.1386 11.3731 109.771 13.4317C110.184 13.4709 110.486 13.837 110.447 14.2493C110.408 14.6617 110.042 14.9641 109.629 14.9249C88.0612 12.8725 75.1709 12.451 50.7151 12.9281C50.3009 12.9362 49.9587 12.607 49.9506 12.1929C49.9425 11.7788 50.2717 11.4365 50.6858 11.4284Z" fill="black"></path>
<path fill-rule="evenodd" clip-rule="evenodd" d="M49.9504 34.0781C49.9504 33.6639 50.2862 33.3281 50.7004 33.3281H109.7C110.115 33.3281 110.45 33.6639 110.45 34.0781C110.45 34.4923 110.115 34.8281 109.7 34.8281H50.7004C50.2862 34.8281 49.9504 34.4923 49.9504 34.0781Z" fill="black"></path>
<path fill-rule="evenodd" clip-rule="evenodd" d="M49.9504 53.9785C49.9504 53.5643 50.2862 53.2285 50.7004 53.2285H109.7C110.115 53.2285 110.45 53.5643 110.45 53.9785C110.45 54.3927 110.115 54.7285 109.7 54.7285H50.7004C50.2862 54.7285 49.9504 54.3927 49.9504 53.9785Z" fill="black"></path>
<path fill-rule="evenodd" clip-rule="evenodd" d="M69.4534 73.7113C69.4905 73.2988 69.8549 72.9943 70.2675 73.0314C85.6471 74.4118 94.2515 74.3625 109.636 73.0312C110.048 72.9954 110.412 73.301 110.448 73.7137C110.483 74.1264 110.178 74.4899 109.765 74.5256C94.2985 75.8641 85.6058 75.9141 70.1334 74.5254C69.7208 74.4883 69.4164 74.1239 69.4534 73.7113Z" fill="black"></path>
<path d="M90.0004 34.0781H70.4004V53.9781H90.1004V34.0781H90.0004Z" fill="black"></path>
<path d="M70.2004 12.6782L50.6005 12.1782V34.0782H70.3005V14.1782L70.2004 12.6782Z" fill="black"></path>
<path fill-rule="evenodd" clip-rule="evenodd" d="M13.62 54.2325C35.7659 51.8454 48.2008 51.6824 70.3527 53.23C70.7551 53.2581 71.0632 53.5994 71.05 54.0026C70.1335 82.1009 70.2197 93.9009 71.0495 110.541C71.0597 110.746 70.9854 110.946 70.8438 111.095C70.7022 111.244 70.5058 111.328 70.3004 111.328H63.7004C63.2862 111.328 62.9504 110.992 62.9504 110.578C62.9504 110.164 63.2862 109.828 63.7004 109.828H69.5125C68.7234 93.6853 68.6492 81.8418 69.5273 54.6763C48.1107 53.2023 35.8236 53.3694 14.3878 55.6587C12.1782 78.496 12.2362 90.7403 14.3692 110.78C17.2359 110.577 19.6286 110.346 21.8886 110.127C29.3107 109.41 35.3007 108.832 51.9453 109.829C52.3588 109.854 52.6739 110.21 52.6491 110.623C52.6243 111.036 52.269 111.352 51.8555 111.327C35.3323 110.336 29.4487 110.905 22.0534 111.619C19.6001 111.856 16.9805 112.109 13.7508 112.326C13.3492 112.353 12.9979 112.059 12.9547 111.659C10.7155 90.9021 10.6486 78.5018 12.954 54.9052C12.9885 54.5515 13.2667 54.2705 13.62 54.2325Z" fill="black"></path>
<path fill-rule="evenodd" clip-rule="evenodd" d="M39.5686 71.7025C39.6655 71.9611 39.5345 72.2493 39.276 72.3462C39.1073 72.4095 38.947 72.4672 38.7925 72.5228C38.1808 72.743 37.66 72.9305 37.0654 73.3021C36.8313 73.4484 36.5228 73.3772 36.3764 73.1431C36.2301 72.9089 36.3013 72.6004 36.5354 72.4541C37.2289 72.0207 37.8669 71.7918 38.4902 71.5682C38.6357 71.516 38.7804 71.4641 38.9249 71.4099C39.1834 71.3129 39.4716 71.4439 39.5686 71.7025Z" fill="black"></path>
<path fill-rule="evenodd" clip-rule="evenodd" d="M51.2769 76.631C51.5239 76.5075 51.8242 76.6076 51.9477 76.8546C52.2498 77.4589 52.4492 78.0252 52.6448 78.5806C52.7182 78.789 52.7911 78.9959 52.8686 79.2027C52.9656 79.4612 52.8346 79.7494 52.576 79.8464C52.3175 79.9434 52.0293 79.8124 51.9323 79.5538C51.8402 79.308 51.7597 79.0795 51.6824 78.8598C51.4947 78.3267 51.3256 77.8465 51.0533 77.3018C50.9298 77.0549 51.0299 76.7545 51.2769 76.631Z" fill="black"></path>
<path fill-rule="evenodd" clip-rule="evenodd" d="M47.8165 91.501C47.9696 91.7308 47.9076 92.0412 47.6778 92.1944C47.0389 92.6204 46.1822 93.0502 45.2089 93.2665C44.9393 93.3264 44.6723 93.1564 44.6124 92.8868C44.5525 92.6173 44.7224 92.3502 44.992 92.2903C45.8187 92.1066 46.562 91.7364 47.1231 91.3623C47.3529 91.2092 47.6633 91.2713 47.8165 91.501Z" fill="black"></path>
<path fill-rule="evenodd" clip-rule="evenodd" d="M31.6452 84.7814C31.9197 84.7509 32.1669 84.9487 32.1974 85.2231C32.2853 86.0143 32.6408 86.7376 33.0164 87.301C33.1696 87.5308 33.1075 87.8412 32.8778 87.9944C32.648 88.1476 32.3376 88.0855 32.1844 87.8557C31.76 87.2191 31.3156 86.3424 31.2035 85.3336C31.173 85.0591 31.3708 84.8119 31.6452 84.7814Z" fill="black"></path>
<path fill-rule="evenodd" clip-rule="evenodd" d="M32.8778 76.5621C33.1075 76.7152 33.1696 77.0257 33.0165 77.2554C32.6475 77.8088 32.2846 78.636 32.1966 79.3401C32.1623 79.6141 31.9124 79.8085 31.6384 79.7742C31.3644 79.74 31.17 79.4901 31.2043 79.2161C31.3163 78.3201 31.7533 77.3473 32.1844 76.7007C32.3376 76.471 32.648 76.4089 32.8778 76.5621Z" fill="black"></path>
<path fill-rule="evenodd" clip-rule="evenodd" d="M36.3764 91.6135C36.5228 91.3793 36.8313 91.3081 37.0654 91.4545C37.66 91.8261 38.1808 92.0135 38.7925 92.2338C38.947 92.2894 39.1073 92.347 39.276 92.4103C39.5345 92.5073 39.6655 92.7955 39.5686 93.054C39.4716 93.3126 39.1834 93.4436 38.9249 93.3466C38.7804 93.2925 38.6357 93.2406 38.4902 93.1884C37.8669 92.9648 37.2289 92.7359 36.5354 92.3025C36.3013 92.1561 36.2301 91.8477 36.3764 91.6135Z" fill="black"></path>
<path fill-rule="evenodd" clip-rule="evenodd" d="M52.576 84.8103C52.8346 84.9073 52.9656 85.1955 52.8686 85.454C52.7911 85.6608 52.7182 85.8677 52.6448 86.0761C52.4492 86.6315 52.2498 87.1978 51.9477 87.8021C51.8242 88.0491 51.5239 88.1492 51.2769 88.0257C51.0299 87.9022 50.9298 87.6018 51.0533 87.3549C51.3256 86.8102 51.4947 86.33 51.6823 85.7969C51.7597 85.5772 51.8402 85.3486 51.9323 85.1029C52.0293 84.8443 52.3175 84.7133 52.576 84.8103Z" fill="black"></path>
<path fill-rule="evenodd" clip-rule="evenodd" d="M44.6124 71.67C44.6723 71.4004 44.9393 71.2304 45.2089 71.2903C46.1822 71.5066 47.0389 71.9364 47.6778 72.3624C47.9076 72.5156 47.9696 72.826 47.8165 73.0558C47.6633 73.2855 47.3529 73.3476 47.1231 73.1945C46.562 72.8204 45.8187 72.4502 44.992 72.2665C44.7224 72.2066 44.5525 71.9395 44.6124 71.67Z" fill="black"></path>
<path fill-rule="evenodd" clip-rule="evenodd" d="M39.0021 66.8385C39.0229 66.5787 39.2398 66.3784 39.5005 66.3784H44.8005C45.0612 66.3784 45.2781 66.5787 45.2989 66.8385L45.6989 71.8385C45.7209 72.1138 45.5156 72.3548 45.2404 72.3768C44.9651 72.3988 44.7241 72.1936 44.7021 71.9183L44.3389 67.3784H39.9621L39.5989 71.9183C39.5769 72.1936 39.3359 72.3988 39.0606 72.3768C38.7854 72.3548 38.5801 72.1138 38.6021 71.8385L39.0021 66.8385Z" fill="black"></path>
<path fill-rule="evenodd" clip-rule="evenodd" d="M31.3469 69.8247C31.5323 69.6393 31.8293 69.6286 32.0276 69.8L35.7276 73C35.9364 73.1807 35.9593 73.4964 35.7787 73.7053C35.598 73.9142 35.2823 73.937 35.0734 73.7564L31.7252 70.8606L28.6829 73.9029L31.5787 77.2512C31.7593 77.46 31.7364 77.7758 31.5276 77.9564C31.3187 78.137 31.0029 78.1142 30.8223 77.9053L27.6223 74.2053C27.4508 74.007 27.4616 73.71 27.6469 73.5247L31.3469 69.8247Z" fill="black"></path>
<path fill-rule="evenodd" clip-rule="evenodd" d="M32.1988 79.1376C32.2212 79.4128 32.0163 79.6541 31.7411 79.6766L27.3004 80.0391V84.4174L31.7411 84.7799C32.0163 84.8024 32.2212 85.0437 32.1988 85.3189C32.1763 85.5942 31.935 85.7991 31.6597 85.7766L26.7597 85.3766C26.5002 85.3554 26.3004 85.1386 26.3004 84.8782V79.5783C26.3004 79.3179 26.5002 79.1011 26.7597 79.0799L31.6597 78.6799C31.935 78.6574 32.1763 78.8623 32.1988 79.1376Z" fill="black"></path>
<path fill-rule="evenodd" clip-rule="evenodd" d="M31.5276 87.7C31.7364 87.8806 31.7593 88.1963 31.5787 88.4052L28.6829 91.7534L31.7252 94.7957L35.0734 91.8999C35.2823 91.7193 35.598 91.7422 35.7787 91.9511C35.9593 92.1599 35.9364 92.4757 35.7276 92.6563L32.0276 95.8563C31.8293 96.0278 31.5323 96.017 31.3469 95.8317L27.6469 92.1317C27.4616 91.9463 27.4508 91.6493 27.6223 91.4511L30.8223 87.7511C31.0029 87.5422 31.3187 87.5193 31.5276 87.7Z" fill="black"></path>
<path fill-rule="evenodd" clip-rule="evenodd" d="M39.0598 92.3801C39.335 92.3576 39.5764 92.5625 39.5988 92.8378L39.9613 97.2784H44.3396L44.7021 92.8378C44.7246 92.5625 44.9659 92.3576 45.2412 92.3801C45.5164 92.4026 45.7213 92.6439 45.6988 92.9191L45.2988 97.8191C45.2776 98.0786 45.0609 98.2784 44.8005 98.2784H39.5005C39.2401 98.2784 39.0233 98.0786 39.0021 97.8191L38.6021 92.9191C38.5797 92.6439 38.7846 92.4026 39.0598 92.3801Z" fill="black"></path>
<path fill-rule="evenodd" clip-rule="evenodd" d="M50.8734 89.3C51.0823 89.1194 51.398 89.1423 51.5787 89.3512L54.7787 93.0512C54.9484 93.2474 54.9398 93.5409 54.7588 93.7269L51.1588 97.4269C50.9742 97.6167 50.6736 97.6296 50.4734 97.4564L46.7734 94.2564C46.5645 94.0758 46.5417 93.76 46.7223 93.5512C46.9029 93.3423 47.2187 93.3194 47.4275 93.5L50.7709 96.3916L53.7222 93.3583L50.8223 90.0053C50.6416 89.7964 50.6645 89.4807 50.8734 89.3Z" fill="black"></path>
<path fill-rule="evenodd" clip-rule="evenodd" d="M51.9021 79.3378C51.9245 79.0625 52.1659 78.8576 52.4411 78.8801L57.3411 79.2801C57.6006 79.3013 57.8004 79.5181 57.8004 79.7784V85.0784C57.8004 85.3388 57.6006 85.5556 57.3411 85.5768L52.4411 85.9768C52.1659 85.9993 51.9245 85.7944 51.9021 85.5191C51.8796 85.2439 52.0845 85.0026 52.3597 84.9801L56.8004 84.6176V80.2393L52.3597 79.8768C52.0845 79.8543 51.8796 79.613 51.9021 79.3378Z" fill="black"></path>
<path fill-rule="evenodd" clip-rule="evenodd" d="M52.0734 67.6999C52.2736 67.5268 52.5742 67.5397 52.7588 67.7294L56.3588 71.4294C56.5398 71.6154 56.5484 71.9089 56.3786 72.1052L53.1786 75.8052C52.998 76.0141 52.6822 76.0369 52.4734 75.8563C52.2645 75.6757 52.2416 75.3599 52.4223 75.1511L55.3222 71.798L52.3709 68.7647L49.0275 71.6563C48.8187 71.8369 48.5029 71.8141 48.3223 71.6052C48.1416 71.3963 48.1645 71.0806 48.3734 70.8999L52.0734 67.6999Z" fill="black"></path>
<path d="M42.1005 87.7783C45.2005 87.7783 47.6005 85.3783 47.6005 82.2783C47.6005 79.1783 45.2005 76.7783 42.1005 76.7783C39.0005 76.7783 36.6005 79.1783 36.6005 82.2783C36.6005 85.3783 39.0005 87.7783 42.1005 87.7783Z" fill="black"></path>
<path fill-rule="evenodd" clip-rule="evenodd" d="M93.9005 80.6782C94.1766 80.6782 94.4005 80.9021 94.4005 81.1782V102.678C94.4005 102.954 94.1766 103.178 93.9005 103.178C93.6243 103.178 93.4005 102.954 93.4005 102.678V81.1782C93.4005 80.9021 93.6243 80.6782 93.9005 80.6782Z" fill="black"></path>
<path fill-rule="evenodd" clip-rule="evenodd" d="M83.1005 94.2783C83.1005 94.0022 83.3243 93.7783 83.6005 93.7783H101.1C101.377 93.7783 101.6 94.0022 101.6 94.2783C101.6 94.5545 101.377 94.7783 101.1 94.7783H83.6005C83.3243 94.7783 83.1005 94.5545 83.1005 94.2783Z" fill="black"></path>
<path fill-rule="evenodd" clip-rule="evenodd" d="M87.8469 88.4248C88.0421 88.2295 88.3587 88.2295 88.554 88.4248L99.454 99.3248C99.6493 99.52 99.6493 99.8366 99.454 100.032C99.2587 100.227 98.9422 100.227 98.7469 100.032L87.8469 89.1319C87.6516 88.9366 87.6516 88.62 87.8469 88.4248Z" fill="black"></path>
<path fill-rule="evenodd" clip-rule="evenodd" d="M101.453 86.7232C101.649 86.9176 101.65 87.2342 101.455 87.4303L88.9554 100.03C88.7609 100.226 88.4444 100.228 88.2483 100.033C88.0523 99.8386 88.051 99.522 88.2455 99.326L100.746 86.726C100.94 86.5299 101.257 86.5287 101.453 86.7232Z" fill="black"></path>
<path fill-rule="evenodd" clip-rule="evenodd" d="M29.9004 28.2783C30.1765 28.2783 30.4004 28.5022 30.4004 28.7783V40.3783C30.4004 40.6545 30.1765 40.8783 29.9004 40.8783C29.6242 40.8783 29.4004 40.6545 29.4004 40.3783V28.7783C29.4004 28.5022 29.6242 28.2783 29.9004 28.2783Z" fill="black"></path>
<path fill-rule="evenodd" clip-rule="evenodd" d="M22.0005 33.9785C22.0005 33.7024 22.2243 33.4785 22.5005 33.4785H38.0005C38.2766 33.4785 38.5005 33.7024 38.5005 33.9785C38.5005 34.2547 38.2766 34.4785 38.0005 34.4785H22.5005C22.2243 34.4785 22.0005 34.2547 22.0005 33.9785Z" fill="black"></path>
<path fill-rule="evenodd" clip-rule="evenodd" d="M22.2469 26.5249C22.4422 26.3296 22.7588 26.3296 22.954 26.5249L37.454 41.0249C37.6493 41.2201 37.6493 41.5367 37.454 41.732C37.2588 41.9272 36.9422 41.9272 36.7469 41.732L22.2469 27.232C22.0516 27.0367 22.0516 26.7201 22.2469 26.5249Z" fill="black"></path>
<path fill-rule="evenodd" clip-rule="evenodd" d="M37.454 26.5249C37.6493 26.7201 37.6493 27.0367 37.454 27.232L24.954 39.732C24.7588 39.9272 24.4422 39.9272 24.2469 39.732C24.0516 39.5367 24.0516 39.2201 24.2469 39.0249L36.7469 26.5249C36.9422 26.3296 37.2588 26.3296 37.454 26.5249Z" fill="black"></path>
</svg>